# xmcd CD database file
# Copyright (C) 1997 Ti Kan
#
# Track frame offsets:
#  150
#  9853
#  25105
#  34895
#  44188
#  55188
#  65548
#  75380
#  87100
#  99348
#
# Disc length: 1477 seconds
#
# Revision: 1
# Processed by: cddbd v1.4b41PL1 Copyright (c) Steve Scherf et al.
# Submitted via: CDWizzard Release:4.35
#
DISCID=7005c30a
DTITLE=Jim Reeves - The country side of Jim Reeves
DYEAR=1900
DGENRE=
TTITLE0=A railroad bum
TTITLE1=Blue side of lonesome
TTITLE2=Waitin's for a train
TTITLE3=I won't forget you
TTITLE4=My lips are sealed
TTITLE5=Most of the time
TTITLE6=When two worlds colilde
TTITLE7=Yonder comes a sucjer
TTITLE8=A ffallen star
TTITLE9=Highway to nowhere
EXTD=
EXTT0=
EXTT1=
EXTT2=
EXTT3=
EXTT4=
EXTT5=
EXTT6=
EXTT7=
EXTT8=
EXTT9=
PLAYORDER=
